<svg width="113" height="50" viewBox="0 0 113 50" fill="none" xmlns="http://www.w3.org/2000/svg">
<path d="M40 0H10C4.47715 0 0 4.47715 0 10V40C0 45.5228 4.47715 50 10 50H40C45.5228 50 50 45.5228 50 40V10C50 4.47715 45.5228 0 40 0Z" fill="#2CB1BC"/>
<path d="M26.0039 9.5625H31.8633V29.25C31.8633 31.0599 31.4596 32.6615 30.6523 34.0547C29.8581 35.4349 28.7318 36.5026 27.2734 37.2578C25.8151 38.013 24.168 38.3906 22.332 38.3906C19.3242 38.3906 16.9805 37.6289 15.3008 36.1055C13.6211 34.569 12.7812 32.401 12.7812 29.6016H18.6797C18.6797 30.9948 18.9727 32.0234 19.5586 32.6875C20.1445 33.3516 21.069 33.6836 22.332 33.6836C23.4518 33.6836 24.3438 33.2995 25.0078 32.5312C25.6719 31.763 26.0039 30.6693 26.0039 29.25V9.5625Z" fill="white"/>
<path d="M64.1619 15.8182H66.3636V28.8153C66.3636 29.9754 66.1506 30.9608 65.7244 31.7717C65.2983 32.5825 64.6976 33.198 63.9222 33.6183C63.1469 34.0385 62.2325 34.2486 61.179 34.2486C60.1847 34.2486 59.2998 34.0681 58.5245 33.707C57.7492 33.3401 57.1396 32.8192 56.6957 32.1445C56.2518 31.4698 56.0298 30.6679 56.0298 29.7386H58.196C58.196 30.2536 58.3233 30.7034 58.5778 31.0881C58.8382 31.4669 59.1933 31.7628 59.6431 31.9759C60.0929 32.1889 60.6049 32.2955 61.179 32.2955C61.8123 32.2955 62.3509 32.1623 62.7947 31.896C63.2386 31.6296 63.576 31.239 63.8068 30.7241C64.0436 30.2032 64.1619 29.567 64.1619 28.8153V15.8182ZM76.0316 34.2841C74.8005 34.2841 73.7204 33.9911 72.7912 33.4052C71.8679 32.8192 71.1458 31.9995 70.625 30.946C70.1101 29.8925 69.8526 28.6615 69.8526 27.2528C69.8526 25.8324 70.1101 24.5924 70.625 23.533C71.1458 22.4736 71.8679 21.6509 72.7912 21.065C73.7204 20.479 74.8005 20.1861 76.0316 20.1861C77.2627 20.1861 78.3398 20.479 79.2631 21.065C80.1924 21.6509 80.9144 22.4736 81.4293 23.533C81.9502 24.5924 82.2106 25.8324 82.2106 27.2528C82.2106 28.6615 81.9502 29.8925 81.4293 30.946C80.9144 31.9995 80.1924 32.8192 79.2631 33.4052C78.3398 33.9911 77.2627 34.2841 76.0316 34.2841ZM76.0316 32.402C76.9667 32.402 77.7362 32.1623 78.3398 31.6829C78.9435 31.2035 79.3904 30.5732 79.6804 29.7919C79.9704 29.0107 80.1154 28.1643 80.1154 27.2528C80.1154 26.3414 79.9704 25.4921 79.6804 24.7049C79.3904 23.9177 78.9435 23.2815 78.3398 22.7962C77.7362 22.3108 76.9667 22.0682 76.0316 22.0682C75.0965 22.0682 74.3271 22.3108 73.7234 22.7962C73.1197 23.2815 72.6728 23.9177 72.3828 24.7049C72.0928 25.4921 71.9478 26.3414 71.9478 27.2528C71.9478 28.1643 72.0928 29.0107 72.3828 29.7919C72.6728 30.5732 73.1197 31.2035 73.7234 31.6829C74.3271 32.1623 75.0965 32.402 76.0316 32.402ZM85.6929 34V15.8182H87.7881V22.5298H87.9656C88.1195 22.2931 88.3326 21.9912 88.6048 21.6243C88.883 21.2514 89.2796 20.92 89.7945 20.63C90.3153 20.334 91.0196 20.1861 91.9074 20.1861C93.0556 20.1861 94.0677 20.4731 94.9436 21.0472C95.8196 21.6213 96.5032 22.4351 96.9944 23.4886C97.4856 24.5421 97.7313 25.785 97.7313 27.2173C97.7313 28.6615 97.4856 29.9132 96.9944 30.9727C96.5032 32.0262 95.8225 32.8429 94.9525 33.4229C94.0825 33.997 93.0793 34.2841 91.9429 34.2841C91.067 34.2841 90.3656 34.1391 89.8389 33.8491C89.3121 33.5531 88.9067 33.2187 88.6226 32.8459C88.3385 32.4671 88.1195 32.1534 87.9656 31.9048H87.7171V34H85.6929ZM87.7526 27.1818C87.7526 28.2116 87.9035 29.1201 88.2053 29.9073C88.5072 30.6886 88.9481 31.3011 89.5281 31.745C90.1082 32.183 90.8184 32.402 91.6588 32.402C92.5348 32.402 93.2657 32.1712 93.8517 31.7095C94.4435 31.242 94.8874 30.6146 95.1833 29.8274C95.4852 29.0343 95.6361 28.1525 95.6361 27.1818C95.6361 26.223 95.4881 25.3589 95.1922 24.5895C94.9022 23.8142 94.4613 23.2016 93.8694 22.7518C93.2835 22.296 92.5466 22.0682 91.6588 22.0682C90.8066 22.0682 90.0904 22.2842 89.5104 22.7163C88.9304 23.1424 88.4924 23.7402 88.1965 24.5096C87.9005 25.2731 87.7526 26.1638 87.7526 27.1818ZM110.595 23.4176L108.713 23.9503C108.595 23.6366 108.42 23.3318 108.189 23.0359C107.964 22.734 107.657 22.4854 107.266 22.2901C106.875 22.0948 106.375 21.9972 105.766 21.9972C104.931 21.9972 104.236 22.1895 103.679 22.5742C103.129 22.953 102.854 23.4354 102.854 24.0213C102.854 24.5421 103.043 24.9535 103.422 25.2553C103.801 25.5572 104.393 25.8087 105.198 26.0099L107.222 26.5071C108.441 26.803 109.349 27.2558 109.947 27.8654C110.545 28.4691 110.844 29.2474 110.844 30.2003C110.844 30.9815 110.619 31.6799 110.169 32.2955C109.725 32.911 109.104 33.3963 108.305 33.7514C107.506 34.1065 106.577 34.2841 105.517 34.2841C104.126 34.2841 102.975 33.9822 102.064 33.3786C101.152 32.7749 100.575 31.893 100.332 30.733L102.321 30.2358C102.511 30.9697 102.869 31.5201 103.395 31.8871C103.928 32.254 104.623 32.4375 105.482 32.4375C106.458 32.4375 107.234 32.2304 107.808 31.8161C108.388 31.3958 108.678 30.8928 108.678 30.3068C108.678 29.8333 108.512 29.4368 108.18 29.1172C107.849 28.7917 107.34 28.549 106.653 28.3892L104.381 27.8565C103.132 27.5606 102.215 27.1019 101.629 26.4805C101.049 25.8531 100.759 25.0689 100.759 24.1278C100.759 23.3584 100.975 22.6778 101.407 22.0859C101.845 21.4941 102.439 21.0295 103.191 20.6921C103.949 20.3548 104.807 20.1861 105.766 20.1861C107.115 20.1861 108.175 20.482 108.944 21.0739C109.719 21.6657 110.27 22.447 110.595 23.4176Z" fill="#2CB1BC"/>
</svg>
